name Walk6.mot
datacolumns 19
datarows 25
range 3.59100000 3.61500000
endheader

                time	   L_ground_force_vx	   L_ground_force_vy	   L_ground_force_vz	   L_ground_force_px	   L_ground_force_py	   L_ground_force_pz	   R_ground_force_vx	   R_ground_force_vy	   R_ground_force_vz	   R_ground_force_px	   R_ground_force_py	   R_ground_force_pz	   L_ground_torque_x	   L_ground_torque_y	   L_ground_torque_z	   R_ground_torque_x	   R_ground_torque_y	   R_ground_torque_z	
          3.59100000	         -2.58592392	         84.22232724	         -4.50063513	          0.00431477	          0.00000000	          0.00254692	         -0.00000000	          0.00000000	          0.00000000	          0.00000000	          0.00000000	          0.00000000	          0.00000000	          0.10958384	          0.00000000	          0.00000000	          0.00000000	          0.00000000	
          3.59200000	         -3.20415598	         92.67557760	         -5.03911325	         -0.01318643	          0.00000000	         -0.00172870	         -0.00000000	          0.00000000	          0.00000000	          0.00000000	          0.00000000	          0.00000000	          0.00000000	          0.12785916	          0.00000000	          0.00000000	          0.00000000	          0.00000000	
          3.59300000	         -3.87800722	        101.44186658	         -5.57564452	         -0.03062337	          0.00000000	         -0.00599017	         -0.00000000	          0.00000000	          0.00000000	          0.00000000	          0.00000000	          0.00000000	          0.00000000	          0.14673942	          0.00000000	          0.00000000	          0.00000000	          0.00000000	
          3.59400000	         -4.60963862	        110.51584813	         -6.10844067	         -0.04794877	          0.00000000	         -0.01022614	         -0.00000000	          0.00000000	         -0.00000000	          0.00000000	          0.00000000	          0.00000000	          0.00000000	          0.16621379	          0.00000000	          0.00000000	          0.00000000	          0.00000000	
          3.59500000	         -5.40115020	        119.89059071	         -6.63562645	         -0.06511489	          0.00000000	         -0.01442516	         -0.00000000	          0.00000000	         -0.00000000	          0.00000000	          0.00000000	          0.00000000	          0.00000000	          0.18626916	          0.00000000	          0.00000000	          0.00000000	          0.00000000	
          3.59600000	         -6.25456774	        129.55744981	         -7.15523680	         -0.08207364	          0.00000000	         -0.01857574	         -0.00000000	          0.00000000	         -0.00000000	          0.00000000	          0.00000000	          0.00000000	          0.00000000	          0.20688994	          0.00000000	          0.00000000	          0.00000000	          0.00000000	
          3.59700000	         -7.17182216	        139.50598642	         -7.66523292	         -0.09877795	          0.00000000	         -0.02266667	         -0.00000000	          0.00000000	         -0.00000000	          0.00000000	          0.00000000	         -0.00000000	          0.00000000	          0.22805817	          0.00000000	          0.00000000	          0.00000000	          0.00000000	
          3.59800000	         -8.15471982	        149.72394461	         -8.16353851	         -0.11518398	          0.00000000	         -0.02668756	         -0.00000000	          0.00000000	         -0.00000000	         -0.00000000	          0.00000000	         -0.00000000	          0.00000000	          0.24975405	          0.00000000	          0.00000000	          0.00000000	          0.00000000	
          3.59900000	         -9.20490834	        160.19725639	         -8.64807841	         -0.13125244	          0.00000000	         -0.03062919	         -0.00000000	          0.00000000	         -0.00000000	         -0.00000000	          0.00000000	         -0.00000000	          0.00000000	          0.27195611	          0.00000000	          0.00000000	          0.00000000	          0.00000000	
          3.60000000	        -10.32384022	        170.91005635	         -9.11680830	         -0.14694875	          0.00000000	         -0.03448349	         -0.00000000	          0.00000000	         -0.00000000	         -0.00000000	          0.00000000	         -0.00000000	          0.00000000	          0.29464079	          0.00000000	          0.00000000	          0.00000000	          0.00000000	
          3.60100000	        -11.51273249	        181.84472292	         -9.56773897	         -0.16224274	          0.00000000	         -0.03824343	         -0.00000000	          0.00000000	         -0.00000000	         -0.00000000	          0.00000000	         -0.00000000	          0.00000000	          0.31778140	          0.00000000	          0.00000000	          0.00000000	          0.00000000	
          3.60200000	        -12.77252079	        192.98196503	         -9.99895828	         -0.17710837	          0.00000000	         -0.04190293	         -0.00000000	          0.00000000	         -0.00000000	         -0.00000000	          0.00000000	         -0.00000000	          0.00000000	          0.34134652	          0.00000000	          0.00000000	          0.00000000	          0.00000000	
          3.60300000	        -14.10380755	        204.30096723	        -10.40865178	         -0.19152348	          0.00000000	         -0.04545682	         -0.00000000	          0.00000000	         -0.00000000	         -0.00000000	          0.00000000	         -0.00000000	          0.00000000	          0.36529866	          0.00000000	          0.00000000	          0.00000000	          0.00000000	
          3.60400000	        -15.50680579	        215.77960376	        -10.79512157	         -0.20546955	          0.00000000	         -0.04890075	         -0.00000000	          0.00000000	         -0.00000000	         -0.00000000	          0.00000000	         -0.00000000	          0.00000000	          0.38959329	          0.00000000	          0.00000000	          0.00000000	          0.00000000	
          3.60500000	        -16.98128107	        227.39472533	        -11.15680248	         -0.21893139	          0.00000000	         -0.05223114	         -0.00000000	          0.00000000	         -0.00000000	         -0.00000000	          0.00000000	         -0.00000000	          0.00000000	          0.41417883	          0.00000000	          0.00000000	          0.00000000	          0.00000000	
          3.60600000	        -18.52649641	        239.12251106	        -11.49227331	         -0.23189697	          0.00000000	         -0.05544514	         -0.00000000	         -0.00000000	         -0.00000000	         -0.00000000	          0.00000000	         -0.00000000	          0.00000000	          0.43899754	          0.00000000	          0.00000000	          0.00000000	          0.00000000	
          3.60700000	        -20.14116510	        250.93886598	        -11.80026116	         -0.24435713	          0.00000000	         -0.05854060	         -0.00000000	         -0.00000000	         -0.00000000	         -0.00000000	          0.00000000	         -0.00000000	          0.00000000	          0.46398707	          0.00000000	          0.00000000	          0.00000000	          0.00000000	
          3.60800000	        -21.82341695	        262.81983367	        -12.07963729	         -0.25630541	          0.00000000	         -0.06151601	         -0.00000000	         -0.00000000	         -0.00000000	         -0.00000000	          0.00000000	         -0.00000000	          0.00000000	          0.48908219	          0.00000000	          0.00000000	          0.00000000	          0.00000000	
          3.60900000	        -23.57078224	        274.74198985	        -12.32940471	         -0.26773784	          0.00000000	         -0.06437046	         -0.00000000	         -0.00000000	         -0.00000000	         -0.00000000	          0.00000000	         -0.00000000	          0.00000000	          0.51421637	          0.00000000	          0.00000000	          0.00000000	          0.00000000	
          3.61000000	        -25.38019571	        286.68278535	        -12.54867946	         -0.27865271	          0.00000000	         -0.06710359	         -0.00000000	         -0.00000000	         -0.00000000	         -0.00000000	          0.00000000	         -0.00000000	          0.00000000	          0.53932279	          0.00000000	          0.00000000	          0.00000000	          0.00000000	
          3.61100000	        -27.24802116	        298.62081740	        -12.73666886	         -0.28905041	          0.00000000	         -0.06971550	         -0.00000000	         -0.00000000	         -0.00000000	         -0.00000000	          0.00000000	         -0.00000000	          0.00000000	          0.56433494	          0.00000000	          0.00000000	          0.00000000	          0.00000000	
          3.61200000	        -29.17009504	        310.53602095	        -12.89265085	         -0.29893325	          0.00000000	         -0.07220680	         -0.00000000	         -0.00000001	         -0.00000000	         -0.00000000	          0.00000000	         -0.00000000	          0.00000000	          0.58918696	          0.00000000	          0.00000000	          0.00000000	          0.00000000	
          3.61300000	        -31.14178613	        322.40978487	        -13.01595751	         -0.30830528	          0.00000000	         -0.07457845	         -0.00000000	         -0.00000001	         -0.00000000	         -0.00000000	          0.00000000	         -0.00000000	          0.00000000	          0.61381406	          0.00000000	          0.00000000	         -0.00000000	          0.00000000	
          3.61400000	        -33.15806793	        334.22500558	        -13.10596500	         -0.31717212	          0.00000000	         -0.07683182	         -0.00000000	         -0.00000001	         -0.00000000	         -0.00000000	          0.00000000	         -0.00000000	          0.00000000	          0.63815326	          0.00000000	          0.00000000	         -0.00000000	          0.00000000	
          3.61500000	        -35.21360029	        345.96609485	        -13.16209037	         -0.32554084	          0.00000000	         -0.07896857	         -0.00000000	         -0.00000001	         -0.00000000	         -0.00000000	          0.00000000	         -0.00000000	          0.00000000	          0.66214445	          0.00000000	          0.00000000	         -0.00000000	          0.00000000	
